<?xml version="1.0" encoding="UTF-8" standalone="no"?>
<!-- Created with Inkscape (http://www.inkscape.org/) -->

<svg
   width="210mm"
   height="297mm"
   viewBox="0 0 210 297"
   version="1.1"
   id="svg5"
   inkscape:version="1.2.2 (732a01da63, 2022-12-09)"
   sodipodi:docname="ApplePieLogo.svg"
   inkscape:export-filename="..\..\..\..\Downloads\ApplePieLogo.png"
   inkscape:export-xdpi="96"
   inkscape:export-ydpi="96"
   xmlns:inkscape="http://www.inkscape.org/namespaces/inkscape"
   xmlns:sodipodi="http://sodipodi.sourceforge.net/DTD/sodipodi-0.dtd"
   xmlns="http://www.w3.org/2000/svg"
   xmlns:svg="http://www.w3.org/2000/svg">
  <sodipodi:namedview
     id="namedview7"
     pagecolor="#ffffff"
     bordercolor="#000000"
     borderopacity="0.25"
     inkscape:showpageshadow="2"
     inkscape:pageopacity="0.0"
     inkscape:pagecheckerboard="0"
     inkscape:deskcolor="#d1d1d1"
     inkscape:document-units="mm"
     showgrid="false"
     inkscape:zoom="1.4414001"
     inkscape:cx="372.55443"
     inkscape:cy="539.75298"
     inkscape:window-width="2880"
     inkscape:window-height="1514"
     inkscape:window-x="-11"
     inkscape:window-y="-11"
     inkscape:window-maximized="1"
     inkscape:current-layer="layer1" />
  <defs
     id="defs2" />
  <g
     inkscape:label="Layer 1"
     inkscape:groupmode="layer"
     id="layer1">
    <path
       style="fill:#e9c6af;stroke-width:0.264583"
       d="m 113.53183,82.601976 10.09579,7.250618 3.02875,14.225896 c 0,0 -2.66163,13.39988 -3.02875,13.39988 -0.36712,0 -13.21631,11.74783 -13.21631,11.74783 L 89.852594,132.80562 68.926759,121.70025 64.980221,101.87577 75.25958,85.538936 96.827873,78.747217 Z"
       id="path283" />
    <path
       style="fill:#deaa87;stroke-width:0.264583"
       d="m 123.62762,104.07849 -27.809325,-0.0918 -24.597035,15.96972 18.447774,9.91223 20.008036,-3.48764 12.20674,-10.55469 z"
       id="path663" />
    <path
       style="fill:#deaa87;stroke-width:0.264583"
       d="m 123.62762,103.98669 -2.66161,-12.940955 -9.54512,-6.149258 -14.868358,-3.120519 -19.182014,6.241036 -9.361556,14.501236 3.212296,17.16286 -4.864336,-17.52998 10.187578,-15.327254 20.008032,-6.975279 16.795738,3.579421 9.45334,7.067057 z"
       id="path665" />
    <path
       style="fill:#cccccc;stroke-width:0.264583"
       d="m 71.221258,122.61805 18.814896,12.57385 21.384736,-4.22188 11.65605,-13.30809 -12.57385,11.35777 -20.489881,3.62531 z"
       id="path721"
       sodipodi:nodetypes="ccccccc" />
    <path
       style="fill:#a0892c;stroke-width:0.264583"
       d="m 98.9171,98.781648 -5.386555,2.920422 -1.10327,5.32165 z"
       id="path826" />
    <path
       style="fill:#c8ab37;stroke-width:0.264583"
       d="m 97.53548,100.01471 -3.680444,1.8496 2.466133,-0.38939 z"
       id="path882" />
    <path
       style="fill:#a0892c;stroke-width:0.264583"
       d="m 100.53955,99.36573 -6.684514,8.20963 7.138804,-4.67268 z"
       id="path938" />
    <path
       style="fill:#c8ab37;stroke-width:0.264583"
       d="m 100.40976,100.01471 0.35694,2.88797 -1.492662,-1.39531 z"
       id="path940" />
    <path
       style="fill:#cccccc;stroke-width:0.264583"
       d="m 90.208557,129.2124 6.940542,-22.18868 24.340411,8.56005 -12.13597,9.99433 z"
       id="path996" />
    <path
       style="fill:#a0892c;stroke-width:0.264583"
       d="m 97.149099,107.02372 0.275338,2.81396 -3.569401,18.70017 -3.646479,0.67455 z"
       id="path1106"
       sodipodi:nodetypes="ccccc" />
    <path
       style="fill:#a0892c;stroke-width:0.264583"
       d="m 97.149099,107.02372 24.340411,8.5961 -4.92894,4.06127 -19.136135,-9.79752 z"
       id="path1108" />
    <path
       style="fill:#e6e6e6;stroke-width:0.264583"
       d="m 97.535478,109.90652 2.484892,17.30053 9.29893,-1.60616 2.88172,-2.43216 z"
       id="path1164" />
  </g>
</svg>
